# xmcd
#
# Track frame offsets:
# 150
# 9647
# 21373
# 35783
# 47526
# 59294
# 73285
# 87003
# 97687
# 112031
# 124660
# 138875
# 152340
# 165247
# 180135
# 191700
#
# Disc length: 2709 seconds
#
#
# Revision: 3
# Processed by: cddbd v1.5.2PL0 Copyright (c) Steve Scherf et al.
# Submitted via: FreeRIP 2.951 
#
DISCID=c30a9310
DTITLE=周璇,潘秀瓊,吳鶯音,姚莉 - 經典年代．懷舊金曲(一)•四季歌
DYEAR=2002
DGENRE=Oldies
TTITLE0=周璇-四季歌[馬路天使]
TTITLE1=吳鶯音-紅燈綠酒夜
TTITLE2=潘秀瓊-峇里島(Bali Island)
TTITLE3=姚莉-秋的懷念
TTITLE4=周璇-春之晨[花外流鶯]
TTITLE5=潘秀瓊-桃李爭春
TTITLE6=李香蘭-分離[一夜風流]
TTITLE7=張露-你真美麗
TTITLE8=周璇-拷紅[西廂記]
TTITLE9=吳鶯音-清明的月
TTITLE10=姚莉-那個不多情[那個不多情]
TTITLE11=潘秀瓊-我是一隻畫眉鳥[那個不多情續集]
TTITLE12=周璇-小小洞房[莫負青春]
TTITLE13=白虹-薔薇花
TTITLE14=李香蘭-蘭閨寂寂[金瓶梅]
TTITLE15=白光-假正經[蕩婦心]
EXTD=
EXTT0=
EXTT1=
EXTT2=
EXTT3=
EXTT4=
EXTT5=
EXTT6=
EXTT7=
EXTT8=
EXTT9=
EXTT10=
EXTT11=
EXTT12=
EXTT13=
EXTT14=
EXTT15=
PLAYORDER=
